<?xml version="1.0" encoding="UTF-8" standalone="no"?>
<!DOCTYPE svg PUBLIC "-//W3C//DTD SVG 1.1//EN" "http://www.w3.org/Graphics/SVG/1.1/DTD/svg11.dtd">
<!-- Generated by graphviz version 2.40.1 (20161225.0304)
 -->
<!-- Title: G Pages: 1 -->
<svg width="89pt" height="188pt" viewBox="0.00 0.00 89.00 188.00" xmlns="http://www.w3.org/2000/svg" xmlns:xlink="http://www.w3.org/1999/xlink">
<g id="graph0" class="graph" transform="scale(1 1) rotate(0) translate(4 184)">
<title>G</title>
<polygon fill="#ffffff" stroke="transparent" points="-4,4 -4,-184 85,-184 85,4 -4,4"/>
<!-- F -->
<g id="node1" class="node">
<title>F</title>
<ellipse fill="none" stroke="#000000" cx="27" cy="-162" rx="27" ry="18"/>
<text text-anchor="middle" x="27" y="-157.8" font-family="Times,serif" font-size="14.00" fill="#000000">F</text>
</g>
<!-- F&#45;&gt;F -->
<g id="edge5" class="edge">
<title>F-&gt;F</title>
<path fill="none" stroke="#000000" d="M46.895,-174.4321C59.688,-177.6753 72,-173.5313 72,-162 72,-153.6218 65.5006,-149.1433 57.0395,-148.5644"/>
<polygon fill="#000000" stroke="#000000" points="56.5019,-145.1004 46.895,-149.5679 57.191,-152.0665 56.5019,-145.1004"/>
</g>
<!-- L1 -->
<g id="node2" class="node">
<title>L1</title>
<ellipse fill="none" stroke="#000000" cx="27" cy="-90" rx="27" ry="18"/>
<text text-anchor="middle" x="27" y="-85.8" font-family="Times,serif" font-size="14.00" fill="#000000">L1</text>
</g>
<!-- F&#45;&gt;L1 -->
<g id="edge1" class="edge">
<title>F-&gt;L1</title>
<path fill="none" stroke="#000000" d="M21.0843,-144.2022C20.2798,-136.1807 20.0571,-126.5231 20.4162,-117.5957"/>
<polygon fill="#000000" stroke="#000000" points="23.9097,-117.8099 21.105,-107.593 16.9262,-117.3289 23.9097,-117.8099"/>
</g>
<!-- L1&#45;&gt;F -->
<g id="edge4" class="edge">
<title>L1-&gt;F</title>
<path fill="none" stroke="#000000" d="M32.895,-107.593C33.7094,-115.5865 33.942,-125.2363 33.5928,-134.1759"/>
<polygon fill="#000000" stroke="#000000" points="30.0976,-133.9891 32.9157,-144.2022 37.0817,-134.4608 30.0976,-133.9891"/>
</g>
<!-- L2 -->
<g id="node3" class="node">
<title>L2</title>
<ellipse fill="none" stroke="#000000" cx="54" cy="-18" rx="27" ry="18"/>
<text text-anchor="middle" x="54" y="-13.8" font-family="Times,serif" font-size="14.00" fill="#000000">L2</text>
</g>
<!-- L1&#45;&gt;L2 -->
<g id="edge3" class="edge">
<title>L1-&gt;L2</title>
<path fill="none" stroke="#000000" d="M33.6742,-72.2022C36.7476,-64.0064 40.4616,-54.1024 43.8695,-45.0145"/>
<polygon fill="#000000" stroke="#000000" points="47.1685,-46.1853 47.4026,-35.593 40.6142,-43.7274 47.1685,-46.1853"/>
</g>
<!-- L2&#45;&gt;F -->
<g id="edge2" class="edge">
<title>L2-&gt;F</title>
<path fill="none" stroke="#000000" d="M59.7309,-35.644C64.8096,-54.0794 70.3717,-83.6528 63,-108 59.7339,-118.7873 53.5236,-129.3892 47.1687,-138.3037"/>
<polygon fill="#000000" stroke="#000000" points="44.3715,-136.1999 41.1229,-146.2844 49.9513,-140.4268 44.3715,-136.1999"/>
</g>
</g>
</svg>